<?xml version="1.0" encoding="UTF-8"?>
<svg version="1.1" xmlns="http://www.w3.org/2000/svg" width="1408" height="768">
<path d="M0 0 C464.64 0 929.28 0 1408 0 C1408 253.44 1408 506.88 1408 768 C943.36 768 478.72 768 0 768 C0 514.56 0 261.12 0 0 Z " fill="#F9F9F6" transform="translate(0,0)"/>
<path d="M0 0 C1.82374146 -0.0153479 1.82374146 -0.0153479 3.68432617 -0.03100586 C26.18446047 0.18809657 47.47401974 10.55626017 63.1875 26.4375 C63.87070312 27.0871875 64.55390625 27.736875 65.2578125 28.40625 C74.79514035 38.13058428 80.30305907 51.25287192 84.01953125 64.16796875 C87.79754851 74.74388999 95.90385875 78.94591686 105.4375 83.5625 C106.13520508 83.88718262 106.83291016 84.21186523 107.55175781 84.54638672 C111.38881358 86.36690788 114.52910597 88.00038448 117.1875 91.4375 C117.81951808 96.33564011 117.75275553 98.40444679 115.375 102.75 C113.1875 105.4375 113.1875 105.4375 111.375 107.0625 C110.983125 107.51625 110.59125 107.97 110.1875 108.4375 C110.60050078 111.79657302 111.70295694 113.18093205 114.25 115.3125 C116.63439219 117.58253285 117.13452154 118.11300693 117.6875 121.5 C117.1943798 124.39708118 116.43659674 126.78316943 115.1875 129.4375 C115.6825 129.80875 116.1775 130.18 116.6875 130.5625 C118.82876944 133.2390868 118.53535248 135.09811623 118.1875 138.4375 C117.5275 139.4275 116.8675 140.4175 116.1875 141.4375 C116.34562621 145.54878142 117.05220306 148.4570738 119.25 151.875 C121.73258637 155.89227612 121.64018092 158.75979714 121.1875 163.4375 C119.68087582 169.32703087 115.12522011 173.17197035 110.1875 176.4375 C107.35351562 177.41723633 107.35351562 177.41723633 104.09375 178.26953125 C102.8975 178.59373047 101.70125 178.91792969 100.46875 179.25195312 C97.9800209 179.90884392 95.49045549 180.56257571 93 181.21289062 C77.39125583 185.45693485 66.56625333 191.09489439 58.12451172 205.27441406 C54.14847802 212.38737714 51.42006666 219.92204436 48.8125 227.625 C48.31157837 229.10250732 48.31157837 229.10250732 47.80053711 230.60986328 C45.57865913 237.47727825 44.18994923 244.29327326 43.1875 251.4375 C42.5275 251.4375 41.8675 251.4375 41.1875 251.4375 C40.36708034 228.32901301 43.18798282 204.8250035 59.47265625 186.92578125 C69.88287724 176.94450756 82.69737523 173.95628912 96.33203125 170.38867188 C97.52957031 170.06318359 98.72710938 169.73769531 99.9609375 169.40234375 C101.03778809 169.1199585 102.11463867 168.83757324 103.22412109 168.54663086 C106.52803616 167.31004442 108.65473208 165.88369477 111.1875 163.4375 C112.32402288 157.64123333 110.17307242 154.41625965 107.30859375 149.63671875 C105.07217173 145.24959123 105.86334474 141.55178372 107.1875 137 C107.5175 136.154375 107.8475 135.30875 108.1875 134.4375 C106.2075 133.4475 104.2275 132.4575 102.1875 131.4375 C103.33923355 128.96949953 104.23533565 127.38966435 106.1875 125.4375 C106.77360371 123.10921371 106.77360371 123.10921371 106.1875 120.4375 C104.933692 118.95864954 103.67779008 117.48116009 102.390625 116.03125 C100.19528594 113.12313852 100.00185144 111.02670548 100.1875 107.4375 C101.5377044 105.23342801 103.0222143 103.35765746 104.7421875 101.4296875 C106.42705092 99.10730819 106.80734151 97.25457188 107.1875 94.4375 C106.47207031 94.18097656 105.75664063 93.92445313 105.01953125 93.66015625 C94.80524654 89.735651 83.27508649 84.17299495 77.49609375 74.3984375 C75.30184873 69.43354876 73.70002303 64.26103044 72.00683594 59.10766602 C68.05053763 47.47550042 61.05156617 35.30683524 50.875 28.0625 C49.82892578 27.30839844 49.82892578 27.30839844 48.76171875 26.5390625 C48.24222656 26.17554688 47.72273437 25.81203125 47.1875 25.4375 C47.50976562 26.22898438 47.83203125 27.02046875 48.1640625 27.8359375 C52.36964903 42.63574965 48.69124046 57.46648521 41.5 70.5625 C38.41762963 75.90265758 34.83169183 80.51820792 30.55859375 84.9609375 C28.59118197 87.01586183 26.74555856 89.10877274 24.8984375 91.26953125 C21.30878518 95.39563476 17.4151869 99.07198612 13.375 102.75 C-1.75276182 116.75525017 -18.31546639 133.33635991 -20.01538086 155.02612305 C-20.86876229 178.39515429 -13.99983072 194.90244525 -1.8125 214.4375 C-1.4825 214.7675 -1.1525 215.0975 -0.8125 215.4375 C-0.79832031 214.6125 -0.78414062 213.7875 -0.76953125 212.9375 C0.1470878 190.74045489 10.12491621 174.08623892 24.66699219 157.81933594 C26.3774504 156.26487327 28.08645752 155.3789569 30.1875 154.4375 C29.7028125 155.25089844 29.218125 156.06429687 28.71875 156.90234375 C21.40905066 169.33048849 14.14013496 182.19718762 11.1875 196.4375 C13.75388947 195.19501767 16.3154307 193.94389433 18.875 192.6875 C19.59623047 192.33945312 20.31746094 191.99140625 21.06054688 191.6328125 C31.3545628 186.5563115 37.60755273 179.34374633 41.5625 168.5 C42.11931878 166.8174389 42.66351996 165.13057529 43.1875 163.4375 C43.5175 162.4475 43.8475 161.4575 44.1875 160.4375 C45.08335749 149.90574508 44.56026199 139.49555808 41.1875 129.4375 C40.7028125 129.80174072 40.218125 130.16598145 39.71875 130.54125977 C36.21560958 133.17156244 32.70834021 135.79576934 29.1875 138.40234375 C25.16507888 141.38480738 21.16863484 144.40017802 17.1875 147.4375 C16.32898438 148.09105469 15.47046875 148.74460937 14.5859375 149.41796875 C1.50115621 160.05251107 -0.40262745 176.8631162 -3.8125 192.4375 C-8.95736126 184.72020811 -8.81462736 174.66891011 -7.3828125 165.765625 C-3.11892851 149.23649447 9.77857925 139.98233286 23.06103516 130.74951172 C30.7340822 125.40569051 37.03870802 120.32158772 42.1875 112.4375 C45.1875 113.4375 45.1875 113.4375 46.43359375 115.37890625 C53.93595237 131.88409521 57.63622121 150.76854911 52.28515625 168.5390625 C46.0600378 184.97691976 36.64141415 195.84914734 20.375 203.203125 C17.00463798 204.67821265 13.60517649 206.07541871 10.1875 207.4375 C9.68036396 219.77110859 9.68036396 219.77110859 13.1875 231.4375 C13.57808594 232.26121094 13.96867188 233.08492187 14.37109375 233.93359375 C17.19374448 239.44296018 20.53408 244.40147667 24.1875 249.375 C32.53664963 260.77039784 37.57472482 271.68898908 37.4375 285.9375 C37.44523438 286.74058594 37.45296875 287.54367187 37.4609375 288.37109375 C37.41372479 302.93621447 30.99512432 315.78139468 20.8125 326 C19.61162601 327.15364861 18.40600859 328.30249327 17.1875 329.4375 C49.55155543 323.00146625 75.32055813 299.76745478 96.35742188 275.52368164 C105.37422803 265.24505189 114.82877253 255.36970779 125.1875 246.4375 C125.8475 246.7675 126.5075 247.0975 127.1875 247.4375 C126.57003906 248.16453125 125.95257812 248.8915625 125.31640625 249.640625 C120.16730578 255.75371232 115.22626591 261.95434698 110.4609375 268.375 C85.68615516 301.74858996 56.80425904 333.45275421 13.78125 340.74609375 C-9.2042133 343.9924173 -32.67744352 342.23091127 -51.83203125 328.23046875 C-63.07642816 318.6044558 -69.81774285 305.51420078 -71.03515625 290.734375 C-71.61109816 272.00374258 -64.71287453 256.23459246 -54.86328125 240.78125 C-45.79449499 225.99480992 -37.59725029 209.44909631 -41.40234375 191.68359375 C-44.93231011 181.28890018 -53.62778121 174.4357737 -61.84643555 167.70361328 C-67.83281913 162.73328745 -75.29327864 156.47594272 -78.8125 149.4375 C-82.28573093 150.70435038 -85.03102498 152.18586832 -88 154.375 C-97.20555411 160.55738363 -106.85935298 161.63550046 -117.8125 160.4375 C-130.35925268 157.10846775 -139.69542986 149.0820263 -146.8125 138.4375 C-153.58137929 126.25695326 -155.86312131 112.85023575 -153.16015625 99.125 C-149.52665693 87.1484872 -142.75092749 76.89150321 -131.7421875 70.71484375 C-120.61148396 65.04220809 -108.94311232 63.22350602 -96.75 66.9375 C-95.42825944 67.41253488 -94.11075932 67.90160917 -92.8125 68.4375 C-92.6475 67.261875 -92.4825 66.08625 -92.3125 64.875 C-87.95181934 45.37477313 -71.44125275 26.25992079 -55 15.5625 C-37.66285296 4.83826726 -20.32676256 0.13221702 0 0 Z M-67.20019531 38.04296875 C-72.77697928 44.80961869 -77.37785722 51.85232383 -80.9375 59.875 C-81.22069092 60.51252197 -81.50388184 61.15004395 -81.7956543 61.80688477 C-83.69792896 66.41538945 -84.68941879 70.48348112 -84.8125 75.4375 C-83.42747671 77.75669427 -83.42747671 77.75669427 -81.1875 79.375 C-76.78671755 83.31577034 -74.27887879 87.10099358 -71.8125 92.4375 C-71.22275391 93.5821875 -71.22275391 93.5821875 -70.62109375 94.75 C-65.8553663 105.37740616 -66.11193021 119.48381342 -69.8125 130.4375 C-72.52207429 124.90699905 -73.36374495 120.08330522 -74 114 C-75.24552428 104.07449808 -78.37691964 95.83196484 -83.8125 87.4375 C-84.8025 86.7775 -85.7925 86.1175 -86.8125 85.4375 C-87.46924509 109.39653385 -83.65138941 131.69437808 -67.0234375 150.16015625 C-65.92902344 151.28744141 -65.92902344 151.28744141 -64.8125 152.4375 C-64.08289063 153.21996094 -63.35328125 154.00242187 -62.6015625 154.80859375 C-58.85476652 158.70657623 -54.9548516 162.18166608 -50.6875 165.5 C-41.46354752 172.76778919 -33.45533297 182.39005821 -31.8125 194.4375 C-30.48432647 216.32682139 -39.33314174 234.23376978 -50.92578125 252.31640625 C-59.13894714 265.90298915 -63.98742256 279.40495621 -61.3125 295.43359375 C-58.486935 306.75190812 -53.34045643 317.12721578 -43.14697266 323.47460938 C-30.22481523 330.78997252 -17.67968158 333.90077223 -3.0625 329.875 C3.17006041 327.72165796 8.13653766 324.64068597 13.1875 320.4375 C14.15816406 319.63505859 14.15816406 319.63505859 15.1484375 318.81640625 C22.47275539 312.14775874 27.95423791 302.10522724 28.55859375 292.15234375 C29.10760943 270.86742817 19.28862889 257.3075761 6.73046875 241.03515625 C-15.45937815 212.26916901 -32.3184631 185.70546187 -28.44921875 147.88671875 C-25.80554678 134.88416888 -17.55494527 122.1567548 -8.8125 112.4375 C-8.00683594 111.51324219 -7.20117188 110.58898437 -6.37109375 109.63671875 C-2.79862688 105.60610346 0.76352075 101.67467654 4.875 98.1875 C20.95253253 84.52322793 38.26648892 67.34508308 41.1875 45.4375 C41.91128013 36.31787042 39.70372962 28.36121612 33.83984375 21.25 C25.53662753 12.14198032 16.14613925 9.09196347 3.92578125 8.19921875 C-22.70563378 7.62225537 -49.49823831 17.56301287 -67.20019531 38.04296875 Z " fill="#4D215F" transform="translate(696.8125,121.5625)"/>
<path d="M0 0 C2.57147587 3.8572138 3 6.48173021 3 11 C3.66 11 4.32 11 5 11 C4.7834375 11.66386719 4.566875 12.32773438 4.34375 13.01171875 C4.0653125 13.89472656 3.786875 14.77773437 3.5 15.6875 C3.2215625 16.55761719 2.943125 17.42773438 2.65625 18.32421875 C1.97506573 21.10166651 1.61694759 23.16172007 2 26 C3.55618357 28.01126612 3.55618357 28.01126612 5.6875 29.75 C9.95660157 33.77816462 12.54857167 37.69584191 15 43 C15.39316406 43.763125 15.78632812 44.52625 16.19140625 45.3125 C18.9786984 51.52806438 19.38506677 57.41046207 19.4375 64.125 C19.4475708 64.9600708 19.4576416 65.7951416 19.46801758 66.65551758 C19.3858774 72.56669763 18.16893292 77.51198002 16 83 C11.79461366 76.69192049 10.93474472 69.81997504 10.3125 62.375 C9.52979641 53.96017897 6.1413472 43.1413472 0 37 C-0.68653319 60.62182728 3.50577463 82.63546168 19.85546875 100.7890625 C20.91701172 101.88347656 20.91701172 101.88347656 22 103 C22.65613281 103.70898438 23.31226563 104.41796875 23.98828125 105.1484375 C27.43098167 108.7498195 31.06457252 111.8852906 35 114.9375 C44.60073073 122.52089928 53.26857073 132.42335444 55 145 C56.32708171 166.8713274 47.50170887 184.95956192 35.8125 202.98828125 C33.23230028 207.27563897 31.32212369 211.79589326 29.421875 216.41796875 C27.88413572 219.21040189 26.96101839 219.96870513 24 221 C23.875 218.125 23.875 218.125 24 215 C24.66 214.34 25.32 213.68 26 213 C26.6425235 210.93125966 26.6425235 210.93125966 27 209 C26.01 209 25.02 209 24 209 C23.67 209.66 23.34 210.32 23 211 C22.34 211 21.68 211 21 211 C22.25881095 206.85457915 23.79888177 203.35486558 26.046875 199.65625 C26.64209961 198.66367187 27.23732422 197.67109375 27.85058594 196.6484375 C28.47739258 195.60945312 29.10419922 194.57046875 29.75 193.5 C34.86317757 184.87849186 39.63533879 176.47488595 43 167 C43.26039063 166.29875 43.52078125 165.5975 43.7890625 164.875 C46.5016047 156.19486495 46.30836053 145.59448786 42.4375 137.35546875 C37.71034194 129.60960922 30.89929561 123.94534281 23.96606445 118.26611328 C17.97968087 113.29578745 10.51922136 107.03844272 7 100 C3.52676907 101.26685038 0.78147502 102.74836832 -2.1875 104.9375 C-11.39305411 111.11988363 -21.04685298 112.19800046 -32 111 C-44.54675268 107.67096775 -53.88292986 99.6445263 -61 89 C-67.76887929 76.81945326 -70.05062131 63.41273575 -67.34765625 49.6875 C-63.71415693 37.7109872 -56.93842749 27.45400321 -45.9296875 21.27734375 C-34.79898396 15.60470809 -23.13061232 13.78600602 -10.9375 17.5 C-9.61575944 17.97503488 -8.29825932 18.46410917 -7 19 C-6.6596875 17.081875 -6.6596875 17.081875 -6.3125 15.125 C-5.11202099 9.61331172 -2.69206281 4.92174841 0 0 Z " fill="#4E2260" transform="translate(611,171)"/>
<path d="M0 0 C6.27 0 12.54 0 19 0 C19 12.87 19 25.74 19 39 C35.5 39 52 39 69 39 C69 26.13 69 13.26 69 0 C75.27 0 81.54 0 88 0 C88 32.34 88 64.68 88 98 C81.73 98 75.46 98 69 98 C69 84.14 69 70.28 69 56 C52.5 56 36 56 19 56 C19 69.86 19 83.72 19 98 C12.73 98 6.46 98 0 98 C0 65.66 0 33.32 0 0 Z " fill="#521E66" transform="translate(659,499)"/>
<path d="M0 0 C24.09 0 48.18 0 73 0 C73 5.28 73 10.56 73 16 C55.18 16 37.36 16 19 16 C19 23.92 19 31.84 19 40 C34.51 40 50.02 40 66 40 C66 45.28 66 50.56 66 56 C50.16 56 34.32 56 18 56 C18 64.58 18 73.16 18 82 C36.81 82 55.62 82 75 82 C75 87.28 75 92.56 75 98 C50.25 98 25.5 98 0 98 C0 65.66 0 33.32 0 0 Z " fill="#541F67" transform="translate(772,499)"/>
<path d="M0 0 C1.0720166 0.00491455 2.1440332 0.0098291 3.24853516 0.01489258 C14.98553724 0.18904533 24.0640742 2.57610237 34.3125 8.3125 C33.74424347 13.85300113 31.68363483 18.34965966 29.3125 23.3125 C24.715393 21.860782 20.30801311 20.09745348 15.875 18.21484375 C7.44236721 15.2454258 -3.58412414 14.56400086 -11.875 18.125 C-14.60668568 19.48823129 -16.80221796 20.88527144 -18.6875 23.3125 C-19.08653439 25.49183331 -19.08653439 25.49183331 -18.9375 27.8125 C-18.92203125 28.5859375 -18.9065625 29.359375 -18.890625 30.15625 C-18.75221705 32.4947807 -18.75221705 32.4947807 -17.6875 35.3125 C-15.41677825 36.47377843 -15.41677825 36.47377843 -12.6875 37.3125 C-11.84316406 37.59609375 -10.99882813 37.8796875 -10.12890625 38.171875 C-4.86096502 39.80157731 0.39105307 41.34808156 5.73828125 42.6953125 C6.69742432 42.9418457 7.65656738 43.18837891 8.64477539 43.44238281 C10.54523359 43.92771445 12.44931175 44.39915106 14.35717773 44.85449219 C23.72899866 47.26619092 31.95677178 52.03381502 37.3125 60.3125 C40.22719712 67.59924279 40.16857956 74.71331463 37.48046875 82.0078125 C33.76012994 89.34894929 27.9981938 94.54565023 20.3125 97.3125 C19.58289063 97.60898437 18.85328125 97.90546875 18.1015625 98.2109375 C2.8022829 103.47157307 -16.51189454 101.40649691 -31.046875 94.78125 C-34.61722815 92.89432761 -37.82375915 91.17624085 -40.6875 88.3125 C-40.38547757 83.32912989 -37.77478962 78.76862062 -35.6875 74.3125 C-31.23185855 74.92389441 -27.88462716 76.64047982 -23.9375 78.75 C-11.96522005 84.91433133 -1.15493318 85.82080335 11.90234375 82.359375 C14.76698688 81.11508917 16.32055564 79.70461176 18.3125 77.3125 C19.56661568 73.95075863 19.56661568 73.95075863 19.3125 70.3125 C15.66034062 64.70770095 12.11145268 62.97003399 5.8125 61.125 C4.61318848 60.74686157 4.61318848 60.74686157 3.38964844 60.36108398 C-1.18120789 58.95089695 -5.74645589 57.82245226 -10.4375 56.875 C-19.75360069 54.85592114 -29.63542702 50.84376982 -35.671875 43.18359375 C-39.42967467 36.26057051 -39.51499669 28.99270365 -38.6875 21.3125 C-36.0568438 13.19739539 -30.0518347 7.95121059 -22.6875 4.0625 C-15.18019347 0.3735649 -8.24743659 -0.04414842 0 0 Z " fill="#501B65" transform="translate(602.6875,497.6875)"/>
<path d="M0 0 C0.01401855 1.18420532 0.01401855 1.18420532 0.02832031 2.39233398 C0.31958402 22.00551815 1.19737356 39.30416977 10.0234375 57.14453125 C11 60 11 60 10.38671875 62.1953125 C5.86638165 68.0781174 -0.79676522 71.63692634 -8 73 C-18.81898542 74.37670894 -26.67776602 71.79764805 -35.31640625 65.2421875 C-43.11472975 58.16894532 -48.50698926 47.30552273 -49.21484375 36.81640625 C-49.55640917 24.12383537 -46.94174619 14.41038729 -38.1484375 5.0234375 C-26.78922022 -5.61168625 -13.8331908 -6.88522762 0 0 Z " fill="#F8F7F6" transform="translate(601,200)"/>
<path d="M0 0 C0.91458984 -0.00386719 1.82917969 -0.00773437 2.77148438 -0.01171875 C7.03226124 -0.00552126 11.0370462 0.02865371 15.1875 1.125 C14.26185085 6.52056018 13.05824978 11.72313754 11.3828125 16.9375 C9.79672897 22.01922815 8.36376044 27.11545535 7.0390625 32.26953125 C6.85686157 32.97534836 6.67466064 33.68116547 6.48693848 34.40837097 C5.74072367 37.30604241 4.99741501 40.20436153 4.265625 43.10571289 C-2.14583466 68.45101436 -11.4351097 93.32225953 -34.89453125 107.52734375 C-48.54983004 115.00393974 -61.58553311 117.61581744 -77.0625 117.3125 C-78.40493265 117.29740372 -79.74738201 117.28372418 -81.08984375 117.27148438 C-84.33116944 117.23650604 -87.57160662 117.18742337 -90.8125 117.125 C-90.8125 115.125 -90.8125 115.125 -89.29296875 113.43359375 C-83.48571702 108.69479719 -78.95764216 107.6041505 -71.6875 107.5 C-55.32721771 107.25718472 -40.66516538 101.84854794 -28.5625 90.5 C-15.76374093 76.90131849 -10.19879829 59.71609381 -5.58544922 42.07080078 C-4.64329575 38.4801426 -3.68337685 34.89431597 -2.72265625 31.30859375 C-0.74348428 23.91647479 1.22462038 16.52146402 3.1875 9.125 C-8.07889456 9.52936317 -18.80422398 10.68485055 -29.8125 13.125 C-31.04613281 13.37894531 -32.27976562 13.63289063 -33.55078125 13.89453125 C-51.32086711 18.00398088 -67.92086757 27.63359177 -78.44921875 42.8515625 C-85.1529953 54.03092625 -89.97486937 65.52540886 -91.75 78.5 C-92.58378939 84.02934019 -93.98438231 87.02980433 -97.8125 91.125 C-100.48046875 92.3046875 -100.48046875 92.3046875 -102.8125 93.125 C-101.41503468 65.87442627 -94.36935244 42.55406287 -73.875 23.3125 C-61.77986226 12.88437971 -46.39286574 6.26333081 -30.8125 3.125 C-29.95140625 2.93292969 -29.0903125 2.74085938 -28.203125 2.54296875 C-18.8403398 0.52211915 -9.56018734 -0.04129671 0 0 Z " fill="#4E2160" transform="translate(850.8125,332.875)"/>
<path d="M0 0 C23.76 0 47.52 0 72 0 C72 4.62 72 9.24 72 14 C71.67 14 71.34 14 71 14 C71 9.71 71 5.42 71 1 C48.23 1 25.46 1 2 1 C2 1.66 2 2.32 2 3 C2.99 3.33 3.98 3.66 5 4 C4.34 4.66 3.68 5.32 3 6 C2.78241171 8.73898942 2.68858368 11.37988833 2.68115234 14.12158203 C2.67110672 14.96068115 2.6610611 15.79978027 2.65071106 16.66430664 C2.61975214 19.44546811 2.6028088 22.22653278 2.5859375 25.0078125 C2.56723606 26.93310385 2.54766343 28.85838691 2.5272522 30.78366089 C2.47581677 35.85694506 2.43625226 40.93025585 2.39910889 46.00366211 C2.3521164 52.08770177 2.2904699 58.17160825 2.23126221 64.25553894 C2.14291096 73.50363921 2.07324613 82.75171215 2 92 C25.43 92 48.86 92 73 92 C73 88.7 73 85.4 73 82 C73.33 82 73.66 82 74 82 C74 86.62 74 91.24 74 96 C49.58 96 25.16 96 0 96 C0 64.32 0 32.64 0 0 Z " fill="#3F0F52" transform="translate(772,500)"/>
<path d="M0 0 C5.94 0 11.88 0 18 0 C18 12.54 18 25.08 18 38 C17.67 38 17.34 38 17 38 C17 25.79 17 13.58 17 1 C12.05 1 7.1 1 2 1 C2.66 2.32 3.32 3.64 4 5 C4.18098862 7.84745332 4.25265897 10.59442425 4.22705078 13.44042969 C4.22734283 14.28957443 4.22763489 15.13871918 4.22793579 16.01359558 C4.22654398 18.81645983 4.21098976 21.61905727 4.1953125 24.421875 C4.19158184 26.36671809 4.18873512 28.31156305 4.18673706 30.25640869 C4.17910477 35.37250975 4.1594597 40.48849707 4.1373291 45.60455322 C4.116862 50.82619691 4.10773349 56.047859 4.09765625 61.26953125 C4.07621348 71.51307078 4.04208235 81.75652593 4 92 C7.3 92 10.6 92 14 92 C14 92.66 14 93.32 14 94 C14.99 94.33 15.98 94.66 17 95 C17 81.47 17 67.94 17 54 C17.33 54 17.66 54 18 54 C18 67.86 18 81.72 18 96 C12.06 96 6.12 96 0 96 C0 64.32 0 32.64 0 0 Z " fill="#441952" transform="translate(659,500)"/>
<path d="M0 0 C9.9305475 9.27412148 11.73363092 20.42997001 13.33203125 33.30078125 C13.82253002 37.12515071 14.67421803 40.63922183 15.875 44.3125 C16.96020185 47.8407973 17.13084914 49.75869875 15.6875 53.1875 C15.130625 54.115625 14.57375 55.04375 14 56 C0.78619608 40.01955588 -0.54165318 19.76031059 0 0 Z " fill="#F6F1F7" transform="translate(610,207)"/>
<path d="M0 0 C3.70718433 0.81785983 5.13329673 2.33819937 7.16015625 5.4765625 C7.79480821 8.28716402 7.79055099 10.66534271 7.16015625 13.4765625 C5.36651714 16.2865971 4.1413469 17.98596718 1.16015625 19.4765625 C-3.02128386 19.87103798 -5.14930423 19.92691436 -8.71484375 17.6015625 C-11.62695033 14.68945592 -11.8005268 13.8762848 -12.21484375 9.6640625 C-12.14775486 6.31571686 -11.81923122 5.44464632 -9.90234375 2.4765625 C-6.33149918 0.14458237 -4.19478356 -0.26611315 0 0 Z " fill="#F4EFF3" transform="translate(583.83984375,627.5234375)"/>
<path d="M0 0 C0.99 0 1.98 0 3 0 C3.176521 0.54003662 3.35304199 1.08007324 3.53491211 1.63647461 C4.33266495 4.07118164 5.13501879 6.50434758 5.9375 8.9375 C6.21529297 9.78763672 6.49308594 10.63777344 6.77929688 11.51367188 C7.04677734 12.32255859 7.31425781 13.13144531 7.58984375 13.96484375 C7.83597412 14.7137085 8.08210449 15.46257324 8.33569336 16.23413086 C8.86064269 17.99825981 8.86064269 17.99825981 10 19 C10.16081055 18.45996338 10.32162109 17.91992676 10.48730469 17.36352539 C11.22426841 14.92423853 11.98670461 12.4936692 12.75 10.0625 C13.00265625 9.21236328 13.2553125 8.36222656 13.515625 7.48632812 C13.7734375 6.67744141 14.03125 5.86855469 14.296875 5.03515625 C14.52729492 4.2862915 14.75771484 3.53742676 14.99511719 2.76586914 C15.32672852 2.18313232 15.65833984 1.60039551 16 1 C17.32 0.67 18.64 0.34 20 0 C22.31 6.27 24.62 12.54 27 19 C28.81281032 13.12677608 28.81281032 13.12677608 30.58886719 7.24243164 C30.93933105 6.14983032 30.93933105 6.14983032 31.296875 5.03515625 C31.64250488 3.91185913 31.64250488 3.91185913 31.99511719 2.76586914 C33 1 33 1 35.10644531 0.24780273 C36.04375488 0.12514038 36.04375488 0.12514038 37 0 C34.42867609 8.69651012 31.71587276 17.347852 29 26 C27.68 26 26.36 26 25 26 C23.99513105 23.04329782 22.99693976 20.08438423 22 17.125 C21.71382812 16.28324219 21.42765625 15.44148437 21.1328125 14.57421875 C20.86210938 13.76855469 20.59140625 12.96289062 20.3125 12.1328125 C20.06113281 11.38918457 19.80976562 10.64555664 19.55078125 9.87939453 C19 8 19 8 19 6 C18.34 6 17.68 6 17 6 C16.731875 7.27875 16.46375 8.5575 16.1875 9.875 C15.38075619 13.42918601 14.55430552 16.97574846 13.625 20.5 C13.41101563 21.3353125 13.19703125 22.170625 12.9765625 23.03125 C12 25 12 25 9.8984375 25.78125 C9.27195312 25.8534375 8.64546875 25.925625 8 26 C5.97332439 20.77331027 4.11115839 15.49670058 2.3125 10.1875 C2.08602783 9.52935303 1.85955566 8.87120605 1.6262207 8.19311523 C0.66490046 5.32975686 0 3.04312168 0 0 Z " fill="#462853" transform="translate(534,621)"/>
<path d="M0 0 C1.32 0 2.64 0 4 0 C5.46743436 3.01649306 6.92225103 6.03891051 8.375 9.0625 C8.7875 9.91005859 9.2 10.75761719 9.625 11.63085938 C11.89384127 16.36981009 13.73969476 20.89645626 15 26 C14.01 26 13.02 26 12 26 C11.34 23.69 10.68 21.38 10 19 C5.05 19 0.1 19 -5 19 C-5.66 20.98 -6.32 22.96 -7 25 C-7.99 25.33 -8.98 25.66 -10 26 C-9.45080664 19.98882908 -6.95138069 15.02233648 -4.4375 9.625 C-4.01275391 8.69816406 -3.58800781 7.77132812 -3.15039062 6.81640625 C-2.10663024 4.54124315 -1.05636818 2.26932965 0 0 Z " fill="#452153" transform="translate(852,621)"/>
<path d="M0 0 C1.38024751 4.14074252 -0.34552161 6.45873039 -2.125 10.1875 C-7.53709496 22.04940325 -11.35197919 34.01261215 -13 47 C-13.66 47 -14.32 47 -15 47 C-16.14239177 14.8226318 -16.14239177 14.8226318 -9 4 C-6.56968481 3.27090544 -4.52838375 3 -2 3 C-1.34 2.01 -0.68 1.02 0 0 Z " fill="#4C215B" transform="translate(753,326)"/>
<path d="M0 0 C2.4375 1.6875 2.4375 1.6875 4 4 C4 5.98 4 7.96 4 10 C-0.95 10 -5.9 10 -11 10 C-10.01 11.65 -9.02 13.3 -8 15 C-5.03618482 15.60481772 -5.03618482 15.60481772 -1.8125 15.3125 C-0.18248047 15.24482422 -0.18248047 15.24482422 1.48046875 15.17578125 C2.31191406 15.11777344 3.14335938 15.05976562 4 15 C4 15.66 4 16.32 4 17 C0.83305545 19.11129637 -2.25519913 19.47202483 -6.03125 19.39453125 C-9.38693026 18.72206358 -10.95936396 16.59717314 -13 14 C-14.56935594 10.86128812 -14.35201103 8.46144178 -14 5 C-9.42918794 -0.53308828 -6.99574756 -1.56801238 0 0 Z " fill="#52345F" transform="translate(756,628)"/>
<path d="M0 0 C2.7109375 1.50390625 2.7109375 1.50390625 5 4 C5.37233017 6.96672677 5.4808246 9.31856241 5.3125 12.25 C5.28994141 12.99507812 5.26738281 13.74015625 5.24414062 14.5078125 C5.18543561 16.339409 5.09575757 18.16996653 5 20 C2.89646505 20.0810206 0.79204048 20.13919907 -1.3125 20.1875 C-2.48425781 20.22230469 -3.65601563 20.25710938 -4.86328125 20.29296875 C-8 20 -8 20 -9.89453125 18.64453125 C-11.47793508 16.28900824 -11.41637778 14.77585184 -11 12 C-9.80078125 10.35546875 -9.80078125 10.35546875 -8 9 C-5.51953125 8.70703125 -5.51953125 8.70703125 -2.8125 8.8125 C-1.91144531 8.83957031 -1.01039063 8.86664062 -0.08203125 8.89453125 C0.94857422 8.94673828 0.94857422 8.94673828 2 9 C1.34 7.35 0.68 5.7 0 4 C-5.08303686 3.88679144 -5.08303686 3.88679144 -10 5 C-9.625 3.0625 -9.625 3.0625 -9 1 C-5.89951072 -0.55024464 -3.42105782 -0.28992015 0 0 Z " fill="#452752" transform="translate(775,627)"/>
<path d="M0 0 C2.9375 2.25 2.9375 2.25 5 5 C5 6.65 5 8.3 5 10 C-0.28 10 -5.56 10 -11 10 C-8.63763049 15.26720863 -8.63763049 15.26720863 -4.5625 15.875 C-1.66780418 15.97656827 0.31485626 15.96665175 3 15 C2 18 2 18 0 19 C-7.13230769 19.70153846 -7.13230769 19.70153846 -10.9375 16.625 C-13.90672736 12.84598336 -14.55686828 10.82619179 -14 6 C-10.15604442 -0.21057003 -7.1080184 -1.68664843 0 0 Z " fill="#432551" transform="translate(646,628)"/>
<path d="M0 0 C0.99 0 1.98 0 3 0 C3.33 0.66 3.66 1.32 4 2 C4.99 1.34 5.98 0.68 7 0 C11.15869464 0.29704962 13.50407222 0.66938148 17 3 C17.515625 2.484375 18.03125 1.96875 18.5625 1.4375 C22.04426568 -0.61584899 24.1631596 0.02334972 28 1 C29.703125 2.04296875 29.703125 2.04296875 31 4 C31.21714241 6.81127043 31.28284276 9.3883345 31.1875 12.1875 C31.16719727 13.31188477 31.16719727 13.31188477 31.14648438 14.45898438 C31.11118539 16.30629767 31.05737917 18.15324066 31 20 C30.34 20 29.68 20 29 20 C28.95101562 19.01257813 28.90203125 18.02515625 28.8515625 17.0078125 C28.77679687 15.72648438 28.70203125 14.44515625 28.625 13.125 C28.55539062 11.84882812 28.48578125 10.57265625 28.4140625 9.2578125 C28.32758894 5.91938301 28.32758894 5.91938301 26 4 C23 3.58333333 23 3.58333333 20 4 C17.65229357 7.52155964 17.62330386 9.50771843 17.375 13.6875 C17.30023437 14.86699219 17.22546875 16.04648437 17.1484375 17.26171875 C17.09945312 18.16535156 17.05046875 19.06898438 17 20 C16.01 20 15.02 20 14 20 C13.93941406 18.92878906 13.87882813 17.85757813 13.81640625 16.75390625 C13.73201463 15.35675609 13.64736594 13.95962143 13.5625 12.5625 C13.52318359 11.85544922 13.48386719 11.14839844 13.44335938 10.41992188 C13.52375562 6.91309581 13.52375562 6.91309581 12 4 C9.04182893 3.74994614 9.04182893 3.74994614 6 4 C3.14206684 6.85793316 3.59200059 9.14665584 3.375 13.125 C3.30023437 14.40632812 3.22546875 15.68765625 3.1484375 17.0078125 C3.09945312 17.99523437 3.05046875 18.98265625 3 20 C2.01 20 1.02 20 0 20 C0 13.4 0 6.8 0 0 Z " fill="#452852" transform="translate(596,627)"/>
<path d="M0 0 C0.33 0 0.66 0 1 0 C1 28.71 1 57.42 1 87 C4.3 87 7.6 87 11 87 C11 87.66 11 88.32 11 89 C5.06 89.495 5.06 89.495 -1 90 C-1.02312228 78.41311598 -1.0409145 66.82623741 -1.05181217 55.23933506 C-1.05704125 49.85966238 -1.06413935 44.48000542 -1.07543945 39.1003418 C-1.08626745 33.91325157 -1.09227665 28.72617651 -1.09487724 23.53907585 C-1.09673165 21.5554372 -1.10035256 19.57179942 -1.10573006 17.58816719 C-1.11293932 14.81990864 -1.11399099 12.05171362 -1.11352539 9.28344727 C-1.11712067 8.45482681 -1.12071594 7.62620636 -1.12442017 6.7724762 C-1.11405216 1.11405216 -1.11405216 1.11405216 0 0 Z " fill="#450F5A" transform="translate(662,505)"/>
<path d="M0 0 C0.99 0 1.98 0 3 0 C3 3.96 3 7.92 3 12 C8.28 12 13.56 12 19 12 C19 8.04 19 4.08 19 0 C19.66 0 20.32 0 21 0 C21 8.58 21 17.16 21 26 C20.34 26 19.68 26 19 26 C19 22.04 19 18.08 19 14 C13.72 14 8.44 14 3 14 C3 17.96 3 21.92 3 26 C2.01 26 1.02 26 0 26 C0 17.42 0 8.84 0 0 Z " fill="#401E4D" transform="translate(715,621)"/>
<path d="M0 0 C0.99 0 1.98 0 3 0 C3.33 3.3 3.66 6.6 4 10 C4.99 9.34 5.98 8.68 7 8 C10.23914928 8.17352585 12.89631051 8.32818901 15.70703125 10.0390625 C17.77961078 13.18237043 17.31110482 16.55858934 17.1875 20.1875 C17.16719727 21.31188477 17.16719727 21.31188477 17.14648438 22.45898438 C17.11118539 24.30629767 17.05737917 26.15324066 17 28 C16.34 28 15.68 28 15 28 C14.95101562 27.01257813 14.90203125 26.02515625 14.8515625 25.0078125 C14.73941406 23.08582031 14.73941406 23.08582031 14.625 21.125 C14.55539062 19.84882812 14.48578125 18.57265625 14.4140625 17.2578125 C14.32758894 13.91938301 14.32758894 13.91938301 12 12 C9 11.66666667 9 11.66666667 6 12 C3.14206684 14.85793316 3.59200059 17.14665584 3.375 21.125 C3.30023437 22.40632812 3.22546875 23.68765625 3.1484375 25.0078125 C3.09945312 25.99523437 3.05046875 26.98265625 3 28 C2.01 28 1.02 28 0 28 C0 18.76 0 9.52 0 0 Z " fill="#60446D" transform="translate(811,619)"/>
<path d="M0 0 C3.70718433 0.81785983 5.13329673 2.33819937 7.16015625 5.4765625 C7.79480821 8.28716402 7.79055099 10.66534271 7.16015625 13.4765625 C5.36651714 16.2865971 4.1413469 17.98596718 1.16015625 19.4765625 C-3.02128386 19.87103798 -5.14930423 19.92691436 -8.71484375 17.6015625 C-11.62695033 14.68945592 -11.8005268 13.8762848 -12.21484375 9.6640625 C-12.14775486 6.31571686 -11.81923122 5.44464632 -9.90234375 2.4765625 C-6.33149918 0.14458237 -4.19478356 -0.26611315 0 0 Z M-7.77734375 3.4765625 C-9.49825694 6.71592851 -9.47842063 9.95019905 -8.83984375 13.4765625 C-6.87205714 16.39180192 -5.78262133 17.28800698 -2.33984375 17.9765625 C1.10293383 17.28800698 2.19236964 16.39180192 4.16015625 13.4765625 C4.79873313 9.95019905 4.81856944 6.71592851 3.09765625 3.4765625 C-0.45896262 1.64088825 -4.22072488 1.64088825 -7.77734375 3.4765625 Z " fill="#3E204C" transform="translate(583.83984375,627.5234375)"/>
<path d="M0 0 C1.29088531 0.0001133 1.29088531 0.0001133 2.60784912 0.00022888 C3.52777649 0.00539017 4.44770386 0.01055145 5.39550781 0.01586914 C6.81866302 0.01799156 6.81866302 0.01799156 8.27056885 0.02015686 C11.29662243 0.02574797 14.32260164 0.03829887 17.34863281 0.05102539 C19.40201716 0.05604154 21.45540267 0.06060425 23.50878906 0.06469727 C28.53876557 0.0757145 33.56868659 0.09297306 38.59863281 0.11352539 C38.59863281 0.77352539 38.59863281 1.43352539 38.59863281 2.11352539 C39.58863281 2.44352539 40.57863281 2.77352539 41.59863281 3.11352539 C34.79934862 3.16411479 28.00011271 3.19921206 21.20068359 3.22338867 C18.88621202 3.23346431 16.57175322 3.24712514 14.25732422 3.2644043 C10.93616588 3.28858404 7.61517541 3.29999269 4.29394531 3.30883789 C3.25432648 3.31916046 2.21470764 3.32948303 1.14358521 3.34011841 C0.18274017 3.34026947 -0.77810486 3.34042053 -1.76806641 3.34057617 C-2.61634003 3.3450174 -3.46461365 3.34945862 -4.33859253 3.35403442 C-6.40136719 3.11352539 -6.40136719 3.11352539 -8.40136719 1.11352539 C-5.52723173 0.29222397 -2.98536897 -0.0087805 0 0 Z " fill="#441058" transform="translate(796.4013671875,550.886474609375)"/>
<path d="M0 0 C0.99 0.66 1.98 1.32 3 2 C3 2.66 3 3.32 3 4 C-0.3 4 -3.6 4 -7 4 C-7.33 5.32 -7.66 6.64 -8 8 C-7.30132813 8.12117187 -6.60265625 8.24234375 -5.8828125 8.3671875 C-4.97273437 8.53476562 -4.06265625 8.70234375 -3.125 8.875 C-2.22007812 9.03742187 -1.31515625 9.19984375 -0.3828125 9.3671875 C2 10 2 10 4 12 C4.375 14.4375 4.375 14.4375 4 17 C2.17779108 19.29756777 0.72259682 19.90478417 -2.1640625 20.28515625 C-8.39500975 20.51856307 -8.39500975 20.51856307 -10.77734375 18.4765625 C-11.18082031 17.98929688 -11.58429687 17.50203125 -12 17 C-11.01 16.67 -10.02 16.34 -9 16 C-8.34 16.33 -7.68 16.66 -7 17 C-5.00039988 17.039992 -2.99952758 17.04346799 -1 17 C-0.67 15.68 -0.34 14.36 0 13 C-0.71027344 12.79503906 -1.42054688 12.59007812 -2.15234375 12.37890625 C-3.07144531 12.10949219 -3.99054687 11.84007812 -4.9375 11.5625 C-5.85402344 11.29566406 -6.77054688 11.02882813 -7.71484375 10.75390625 C-10 10 -10 10 -11 9 C-11.3125 6.125 -11.3125 6.125 -11 3 C-7.92792827 -0.68648607 -4.54868482 -0.4135168 0 0 Z " fill="#4C315A" transform="translate(697,627)"/>
<path d="M0 0 C0.33 0 0.66 0 1 0 C2.67204974 6.31779022 3.2868908 12.16432483 3.1875 18.6875 C3.18685547 19.50283203 3.18621094 20.31816406 3.18554688 21.15820312 C3.15363618 25.54415086 2.87169193 29.68338157 2 34 C1.01 34 0.02 34 -1 34 C-1.8632601 30.28111134 -2.11721556 26.85703512 -2.09765625 23.04296875 C-2.09443359 21.93115234 -2.09121094 20.81933594 -2.08789062 19.67382812 C-2.07951172 18.52333984 -2.07113281 17.37285156 -2.0625 16.1875 C-2.05798828 15.01767578 -2.05347656 13.84785156 -2.04882812 12.64257812 C-2.0370693 9.76166642 -2.02063426 6.88085956 -2 4 C-1.34 4 -0.68 4 0 4 C0 2.68 0 1.36 0 0 Z " fill="#532D65" transform="translate(748,253)"/>
<path d="M0 0 C2.475 0.495 2.475 0.495 5 1 C5.33 0.67 5.66 0.34 6 0 C9.57709642 -0.40648823 11.51684589 -0.27076322 14.68359375 1.50390625 C17.38357954 4.41333444 17.52819693 6.13433496 17.43945312 10.0390625 C17.39755859 10.76867187 17.35566406 11.49828125 17.3125 12.25 C17.28994141 12.99507812 17.26738281 13.74015625 17.24414062 14.5078125 C17.18543561 16.339409 17.09575757 18.16996653 17 20 C16.34 20 15.68 20 15 20 C14.95101562 19.01257813 14.90203125 18.02515625 14.8515625 17.0078125 C14.73941406 15.08582031 14.73941406 15.08582031 14.625 13.125 C14.55539062 11.84882812 14.48578125 10.57265625 14.4140625 9.2578125 C14.32758894 5.91938301 14.32758894 5.91938301 12 4 C9.36 4 6.72 4 4 4 C3.67 9.28 3.34 14.56 3 20 C2.01 20 1.02 20 0 20 C0 13.4 0 6.8 0 0 Z " fill="#422350" transform="translate(656,627)"/>
<path d="M0 0 C0.99 0 1.98 0 3 0 C3 1.32 3 2.64 3 4 C4.65 4 6.3 4 8 4 C8.33 4.99 8.66 5.98 9 7 C7.02 7 5.04 7 3 7 C3.33 11.62 3.66 16.24 4 21 C5.65 21 7.3 21 9 21 C9 21.99 9 22.98 9 24 C5.625 24.1875 5.625 24.1875 2 24 C-0.49118953 20.2632157 -0.2065226 18.25548181 -0.125 13.8125 C-0.10695313 12.54019531 -0.08890625 11.26789062 -0.0703125 9.95703125 C-0.04710937 8.98121094 -0.02390625 8.00539063 0 7 C-1.32 7 -2.64 7 -4 7 C-4 6.01 -4 5.02 -4 4 C-2.68 4 -1.36 4 0 4 C0 2.68 0 1.36 0 0 Z " fill="#5B3E6A" transform="translate(797,623)"/>
<path d="M0 0 C0.66 0 1.32 0 2 0 C3.53007243 11.06360062 1.93451381 21.0690579 0 32 C-0.66 32 -1.32 32 -2 32 C-2.41277905 9.19872014 -2.41277905 9.19872014 0 0 Z " fill="#64406D" transform="translate(740,341)"/>
<path d="M0 0 C0.33 0 0.66 0 1 0 C1.10957031 0.88300781 1.21914063 1.76601562 1.33203125 2.67578125 C2.11589474 8.60892684 2.96951918 14.23379211 4.8125 19.9375 C5.90274152 23.58603103 6.19957453 25.65461558 4.6875 29.1875 C4.130625 30.115625 3.57375 31.04375 3 32 C0.16085175 28.62006161 -1.60397523 25.18807432 -3 21 C-2.70738281 20.27296875 -2.41476562 19.5459375 -2.11328125 18.796875 C-0.63634817 15.08640453 -0.54480748 11.64613683 -0.375 7.6875 C-0.33632813 6.94693359 -0.29765625 6.20636719 -0.2578125 5.44335938 C-0.16418295 3.62928691 -0.08103149 1.81467884 0 0 Z " fill="#BFA0CA" transform="translate(621,231)"/>
<path d="M0 0 C0.66 0.33 1.32 0.66 2 1 C1.25556641 2.18142578 1.25556641 2.18142578 0.49609375 3.38671875 C-4.32034244 11.10946747 -8.7768891 18.93649762 -13 27 C-13.33 25.68 -13.66 24.36 -14 23 C-13.34 23 -12.68 23 -12 23 C-12 21.68 -12 20.36 -12 19 C-12.66 19 -13.32 19 -14 19 C-14.33 19.99 -14.66 20.98 -15 22 C-15.33 21.01 -15.66 20.02 -16 19 C-14.8828125 17.08984375 -14.8828125 17.08984375 -13.125 14.9375 C-12.48691406 14.15375 -11.84882812 13.37 -11.19140625 12.5625 C-7.54462658 8.29817297 -3.80029441 4.12775743 0 0 Z " fill="#4B2757" transform="translate(725,276)"/>
<path d="M0 0 C1.32 0 2.64 0 4 0 C3.855625 0.825 3.71125 1.65 3.5625 2.5 C2.07338292 11.76561738 1.78117621 20.63920446 2 30 C1.67 28.68 1.34 27.36 1 26 C0.34 26 -0.32 26 -1 26 C-4.61657871 18.76684258 -1.49970027 7.55206207 0 0 Z " fill="#4F2660" transform="translate(628,391)"/>
<path d="M0 0 C0.66 0 1.32 0 2 0 C2.83790789 1.78953185 3.67019396 3.58169695 4.5 5.375 C4.9640625 6.37273438 5.428125 7.37046875 5.90625 8.3984375 C7 11 7 11 7 13 C3.37 13 -0.26 13 -4 13 C-3.40895235 8.15340923 -2.02055843 4.39251833 0 0 Z " fill="#E7DDEA" transform="translate(853,625)"/>
<path d="M0 0 C0.99 0 1.98 0 3 0 C3 9.24 3 18.48 3 28 C2.01 28 1.02 28 0 28 C0 18.76 0 9.52 0 0 Z " fill="#4F335A" transform="translate(787,619)"/>
<path d="M0 0 C0.33 0 0.66 0 1 0 C1.33 12.21 1.66 24.42 2 37 C6.62 37 11.24 37 16 37 C16 37.99 16 38.98 16 40 C10.39 40 4.78 40 -1 40 C-0.67 26.8 -0.34 13.6 0 0 Z " fill="#49165B" transform="translate(729,555)"/>
<path d="M0 0 C2.56236973 2.28702434 3.86658789 4.47237649 5.26171875 7.59765625 C5.65810547 8.48130859 6.05449219 9.36496094 6.46289062 10.27539062 C7.06907227 11.65500977 7.06907227 11.65500977 7.6875 13.0625 C8.10322266 13.98611328 8.51894531 14.90972656 8.94726562 15.86132812 C12 22.72371459 12 22.72371459 12 25 C11.01 25 10.02 25 9 25 C8.01 22.69 7.02 20.38 6 18 C2.04 17.67 -1.92 17.34 -6 17 C-6 16.67 -6 16.34 -6 16 C-2.37 16 1.26 16 5 16 C4.6390625 15.26394531 4.278125 14.52789063 3.90625 13.76953125 C3.4421875 12.79371094 2.978125 11.81789063 2.5 10.8125 C2.0359375 9.84957031 1.571875 8.88664063 1.09375 7.89453125 C0.00407079 5.01077307 -0.22277524 3.04645139 0 0 Z " fill="#482756" transform="translate(855,622)"/>
<path d="M0 0 C2.59103181 2.59103181 2.26101812 4.39246836 2.2734375 7.92578125 C2.26570312 8.69277344 2.25796875 9.45976562 2.25 10.25 C2.25773438 11.00152344 2.26546875 11.75304687 2.2734375 12.52734375 C2.25452052 17.94705718 2.0249909 22.9750091 -2 27 C-2 19.74 -2 12.48 -2 5 C-1.67 5 -1.34 5 -1 5 C-0.67 3.35 -0.34 1.7 0 0 Z " fill="#441A56" transform="translate(744,256)"/>
<path d="M0 0 C0.99 0 1.98 0 3 0 C3 8.58 3 17.16 3 26 C2.01 26 1.02 26 0 26 C0 17.42 0 8.84 0 0 Z " fill="#482B54" transform="translate(871,621)"/>
<path d="M0 0 C0.66 0 1.32 0 2 0 C2.94242818 9.03721311 3.11157151 17.92551747 3 27 C2.01 27 1.02 27 0 27 C0 18.09 0 9.18 0 0 Z " fill="#3A1B49" transform="translate(811,620)"/>
<path d="M0 0 C3.5625 0.3125 3.5625 0.3125 5.5 1.625 C6.5625 3.3125 6.5625 3.3125 6.5625 6.3125 C2.2725 6.3125 -2.0175 6.3125 -6.4375 6.3125 C-4.97238372 0.45203488 -4.97238372 0.45203488 0 0 Z " fill="#F1E7F3" transform="translate(751.4375,629.6875)"/>
<path d="M0 0 C3.625 0.25 3.625 0.25 5.5625 1.5625 C6.625 3.25 6.625 3.25 6.625 6.25 C2.335 6.25 -1.955 6.25 -6.375 6.25 C-3.99332061 0.29580153 -3.99332061 0.29580153 0 0 Z " fill="#F3EBF5" transform="translate(641.375,629.75)"/>
<path d="M0 0 C4.455 0.99 4.455 0.99 9 2 C9.33 3.32 9.66 4.64 10 6 C8 8 8 8 5.125 8.3125 C1.71133828 7.97113383 0.3609799 7.45178682 -2 5 C-2 4.01 -2 3.02 -2 2 C-1.34 2 -0.68 2 0 2 C0 1.34 0 0.68 0 0 Z " fill="#ECE5EE" transform="translate(688,637)"/>
<path d="M0 0 C0.33 0 0.66 0 1 0 C1.33 1.98 1.66 3.96 2 6 C2.33 6 2.66 6 3 6 C3.33 12.27 3.66 18.54 4 25 C2.68 25.33 1.36 25.66 0 26 C0 17.42 0 8.84 0 0 Z " fill="#DFD3E0" transform="translate(790,555)"/>
<path d="M0 0 C0.99 0 1.98 0 3 0 C2.81824219 0.59425781 2.63648438 1.18851563 2.44921875 1.80078125 C0.51738847 8.17086777 -1.27652526 14.57058358 -3 21 C-6 21 -6 21 -8 20 C-7.51080078 18.83984375 -7.51080078 18.83984375 -7.01171875 17.65625 C-4.55822825 11.80840243 -2.1764493 5.95659807 0 0 Z " fill="#513360" transform="translate(568,621)"/>
<path d="M0 0 C2.05078125 0.03255208 4.1015625 0.06510417 6.15234375 0.09765625 C6.33984375 2.47265625 6.33984375 2.47265625 6.15234375 5.09765625 C2.92860698 7.2468141 1.88530701 7.48052428 -1.84765625 7.09765625 C-2.50765625 6.43765625 -3.16765625 5.77765625 -3.84765625 5.09765625 C-3.1001104 0.16385362 -3.1001104 0.16385362 0 0 Z " fill="#F1E8F3" transform="translate(770.84765625,637.90234375)"/>
<path d="M0 0 C0.99 0 1.98 0 3 0 C2.67 1.32 2.34 2.64 2 4 C2.66 4 3.32 4 4 4 C3.67 9.28 3.34 14.56 3 20 C2.01 20 1.02 20 0 20 C0 13.4 0 6.8 0 0 Z " fill="#4E325C" transform="translate(596,627)"/>
<path d="M0 0 C3.25100777 0.0810513 6.50016335 0.19387649 9.75 0.3125 C10.67039062 0.33505859 11.59078125 0.35761719 12.5390625 0.38085938 C13.42851563 0.41630859 14.31796875 0.45175781 15.234375 0.48828125 C16.05131836 0.51446533 16.86826172 0.54064941 17.70996094 0.56762695 C20 1 20 1 24 4 C16.74 4 9.48 4 2 4 C2.33 3.34 2.66 2.68 3 2 C2.01 1.34 1.02 0.68 0 0 Z " fill="#47145A" transform="translate(589,582)"/>
<path d="M0 0 C0 3 0 3 -1 5 C-0.01 5 0.98 5 2 5 C2.33 4.01 2.66 3.02 3 2 C3.33 2.66 3.66 3.32 4 4 C1.69 6.97 -0.62 9.94 -3 13 C-3.33 12.34 -3.66 11.68 -4 11 C-5.32 11 -6.64 11 -8 11 C-7.43040847 7.37386801 -6.07625466 5.74482259 -3.4375 3.25 C-2.79683594 2.63640625 -2.15617188 2.0228125 -1.49609375 1.390625 C-1.00238281 0.93171875 -0.50867188 0.4728125 0 0 Z " fill="#451C55" transform="translate(800,390)"/>
<path d="M0 0 C0 0.33 0 0.66 0 1 C2.97 1.33 5.94 1.66 9 2 C7 6 7 6 5.125 6.8984375 C4.42375 7.05570312 3.7225 7.21296875 3 7.375 C2.29875 7.54773438 1.5975 7.72046875 0.875 7.8984375 C0.25625 7.93195313 -0.3625 7.96546875 -1 8 C-1.66 7.34 -2.32 6.68 -3 6 C-1.02 5.67 0.96 5.34 3 5 C-2.32932432 3.29915181 -7.43109483 2.47986031 -13 2 C-13 1.67 -13 1.34 -13 1 C-8.61414671 0.29826347 -4.44209357 -0.10834375 0 0 Z " fill="#461B58" transform="translate(597,273)"/>
<path d="M0 0 C3 1 3 1 4 3 C4 4.98 4 6.96 4 9 C-3.92 9.495 -3.92 9.495 -12 10 C-11.67 8.68 -11.34 7.36 -11 6 C-6.71 6.33 -2.42 6.66 2 7 C1.34 5.68 0.68 4.36 0 3 C0 2.01 0 1.02 0 0 Z " fill="#3D1D4C" transform="translate(756,629)"/>
<path d="M0 0 C6.37936593 -0.36109618 6.37936593 -0.36109618 8.71875 1 C10.75518944 4.17883229 10.31160535 7.54389423 10.1875 11.1875 C10.17396484 11.93708984 10.16042969 12.68667969 10.14648438 13.45898438 C10.11118539 15.30629767 10.05737917 17.15324066 10 19 C9.34 19 8.68 19 8 19 C7.94392578 17.53626953 7.94392578 17.53626953 7.88671875 16.04296875 C7.78810547 14.13451172 7.78810547 14.13451172 7.6875 12.1875 C7.60048828 10.29064453 7.60048828 10.29064453 7.51171875 8.35546875 C7.28053581 5.06640819 7.28053581 5.06640819 5.59375 3.125 C3.80561057 1.86278393 1.99597375 0.89474685 0 0 Z " fill="#2B0C3A" transform="translate(663,628)"/>
<path d="M0 0 C0.33 0.99 0.66 1.98 1 3 C1.90363281 2.96519531 2.80726563 2.93039062 3.73828125 2.89453125 C4.91777344 2.86746094 6.09726562 2.84039062 7.3125 2.8125 C8.48425781 2.77769531 9.65601563 2.74289062 10.86328125 2.70703125 C14 3 14 3 17 6 C11.39 6 5.78 6 0 6 C0 4.02 0 2.04 0 0 Z " fill="#411453" transform="translate(768,444)"/>
<path d="M0 0 C0.61875 0.86625 0.61875 0.86625 1.25 1.75 C1.8275 2.4925 2.405 3.235 3 4 C3.804375 5.1446875 3.804375 5.1446875 4.625 6.3125 C7.95258626 8.67683761 10.26650168 7.98927392 14.171875 7.359375 C15.07679688 7.18148437 15.07679688 7.18148437 16 7 C15 10 15 10 13 11 C5.97544454 11.69093988 5.97544454 11.69093988 2 8.875 C-0.29742742 5.57244809 -0.45761159 3.9354597 0 0 Z " fill="#381D45" transform="translate(633,636)"/>
<path d="M0 0 C0.66 0 1.32 0 2 0 C2.33 4.29 2.66 8.58 3 13 C4.65 13.33 6.3 13.66 8 14 C8.33 14.99 8.66 15.98 9 17 C5.625 17.1875 5.625 17.1875 2 17 C-0.49118953 13.2632157 -0.2065226 11.25548181 -0.125 6.8125 C-0.10695313 5.54019531 -0.08890625 4.26789062 -0.0703125 2.95703125 C-0.04710937 1.98121094 -0.02390625 1.00539063 0 0 Z " fill="#3A1B48" transform="translate(797,630)"/>
<path d="M0 0 C0.33 0 0.66 0 1 0 C1.07434093 3.86572857 1.06306495 7.27927266 0 11 C0 11.99 0 12.98 0 14 C-1.27760233 17.24314437 -1.96938234 17.97958823 -5 20 C-4.35346673 13.04976736 -2.13972752 6.61822697 0 0 Z " fill="#542E64" transform="translate(656,330)"/>
<path d="M0 0 C-0.556875 0.226875 -1.11375 0.45375 -1.6875 0.6875 C-4.76711022 2.43538688 -6.74603466 4.25869081 -9 7 C-9.88527109 10.68441504 -9.88527109 10.68441504 -10 14 C-10.66 13.67 -11.32 13.34 -12 13 C-12.60356653 5.87791495 -12.60356653 5.87791495 -9.9375 2 C-6.35342568 -0.44022082 -4.25018379 -0.41668469 0 0 Z " fill="#3E1C4B" transform="translate(584,628)"/>
<path d="M0 0 C2.4375 2 2.4375 2 4 4 C1.47908058 4 -1.04196844 3.98171985 -3.5625 3.9375 C-6.98335288 3.82837898 -6.98335288 3.82837898 -10 5 C-9.625 3.0625 -9.625 3.0625 -9 1 C-5.90826248 -0.54586876 -3.40570448 -0.29359521 0 0 Z " fill="#5A4067" transform="translate(775,627)"/>
<path d="M0 0 C4.24005962 0.24941527 6.52418846 0.63554861 9.9375 3.25 C12 6 12 6 12.3125 8.8125 C12.1578125 9.8953125 12.1578125 9.8953125 12 11 C11.34 11 10.68 11 10 11 C9.649375 10.071875 9.29875 9.14375 8.9375 8.1875 C6.40080981 4.0142355 4.5289826 3.53814504 0 2 C0 1.34 0 0.68 0 0 Z " fill="#50355D" transform="translate(639,627)"/>
<path d="M0 0 C1.5 1.375 1.5 1.375 3 3 C3 3.66 3 4.32 3 5 C2.34 5 1.68 5 1 5 C-0.56901859 11.98533796 -0.56901859 11.98533796 -2 19 C-2.33 19 -2.66 19 -3 19 C-4.90818386 12.00332583 -2.52699624 6.60489576 0 0 Z " fill="#52325F" transform="translate(550,622)"/>
<path d="M0 0 C0.94921875 2.06640625 0.94921875 2.06640625 1.6875 4.5625 C1.93886719 5.38878906 2.19023438 6.21507812 2.44921875 7.06640625 C2.63097656 7.70449219 2.81273437 8.34257813 3 9 C2.01 9 1.02 9 0 9 C-0.99 6.69 -1.98 4.38 -3 2 C-6.96 1.67 -10.92 1.34 -15 1 C-15 0.67 -15 0.34 -15 0 C-13.06325815 -0.19517554 -11.12555991 -0.38087873 -9.1875 -0.5625 C-8.10855469 -0.66691406 -7.02960937 -0.77132812 -5.91796875 -0.87890625 C-3 -1 -3 -1 0 0 Z " fill="#3B1848" transform="translate(864,638)"/>
<path d="M0 0 C1.98 0.99 1.98 0.99 4 2 C4 7.28 4 12.56 4 18 C3.34 18 2.68 18 2 18 C1.93941406 17.03578125 1.87882813 16.0715625 1.81640625 15.078125 C1.73261719 13.81484375 1.64882813 12.5515625 1.5625 11.25 C1.48128906 9.99703125 1.40007813 8.7440625 1.31640625 7.453125 C1.07484478 4.81682447 0.75716066 2.51962706 0 0 Z " fill="#2F0F3F" transform="translate(824,629)"/>
<path d="M0 0 C0.99 0 1.98 0 3 0 C3 0.66 3 1.32 3 2 C2.34 2 1.68 2 1 2 C1 2.99 1 3.98 1 5 C1.66 5 2.32 5 3 5 C2.34 6.32 1.68 7.64 1 9 C-0.32 9 -1.64 9 -3 9 C-4.0625 7.1875 -4.0625 7.1875 -5 5 C-4.67 4.01 -4.34 3.02 -4 2 C-3.34 3.32 -2.68 4.64 -2 6 C-1.34 4.02 -0.68 2.04 0 0 Z " fill="#471B58" transform="translate(552,249)"/>
<path d="M0 0 C2.92823559 1.77235312 3.44045424 3.20906918 4.375 6.4375 C3.715 6.4375 3.055 6.4375 2.375 6.4375 C2.375 8.7475 2.375 11.0575 2.375 13.4375 C1.385 13.9325 1.385 13.9325 0.375 14.4375 C0.40980469 13.38949219 0.40980469 13.38949219 0.4453125 12.3203125 C0.46335937 11.41023437 0.48140625 10.50015625 0.5 9.5625 C0.53480469 8.20511719 0.53480469 8.20511719 0.5703125 6.8203125 C0.61824836 4.24943006 0.61824836 4.24943006 -1.625 2.4375 C-4.19561311 1.78982207 -4.19561311 1.78982207 -6.625 1.4375 C-4.0742598 -0.26299347 -3.05397233 -0.65442264 0 0 Z M-1.625 14.4375 C0.375 15.4375 0.375 15.4375 0.375 15.4375 Z " fill="#50325E" transform="translate(586.625,628.5625)"/>
<path d="M0 0 C0.66 0.33 1.32 0.66 2 1 C-1.36300841 5.30885453 -4.96081826 8.85594541 -9.1328125 12.38671875 C-10.83703768 13.85919783 -12.43024216 15.38636694 -14 17 C-14.66 16.67 -15.32 16.34 -16 16 C-10.72 10.72 -5.44 5.44 0 0 Z " fill="#431D52" transform="translate(789,402)"/>
<path d="M0 0 C0.33 0 0.66 0 1 0 C1 5.61 1 11.22 1 17 C1.66 17.33 2.32 17.66 3 18 C1.515 20.475 1.515 20.475 0 23 C-0.99 22.67 -1.98 22.34 -3 22 C-2.68289063 21.18273437 -2.36578125 20.36546875 -2.0390625 19.5234375 C-0.84890917 15.48765441 -0.55640657 11.80490968 -0.375 7.625 C-0.33632813 6.88894531 -0.29765625 6.15289062 -0.2578125 5.39453125 C-0.16442002 3.59672594 -0.0811629 1.79839892 0 0 Z " fill="#CAB3D5" transform="translate(621,231)"/>
<path d="M0 0 C0.66 1.32 1.32 2.64 2 4 C-1.09780948 6.06520632 -1.9540481 6.29477024 -5.5 6.3125 C-6.66015625 6.33763672 -6.66015625 6.33763672 -7.84375 6.36328125 C-10.47015897 5.92078843 -11.33557103 5.02185443 -13 3 C-12.01 2.67 -11.02 2.34 -10 2 C-9.34 2.33 -8.68 2.66 -8 3 C-5 3.33333333 -5 3.33333333 -2 3 C-1.34 2.01 -0.68 1.02 0 0 Z " fill="#452A53" transform="translate(698,641)"/>
<path d="M0 0 C0.33 0 0.66 0 1 0 C1.33 4.62 1.66 9.24 2 14 C0.02 14.99 0.02 14.99 -2 16 C-1.85975781 13.52039864 -1.7130815 11.04147598 -1.5625 8.5625 C-1.52318359 7.85544922 -1.48386719 7.14839844 -1.44335938 6.41992188 C-1.11328125 1.11328125 -1.11328125 1.11328125 0 0 Z " fill="#4E2A5A" transform="translate(750,410)"/>
<path d="M0 0 C2.72727273 4.09090909 2.72727273 4.09090909 3 7 C1.8125 8.75 1.8125 8.75 0 10 C-1.32 10 -2.64 10 -4 10 C-2.8905928 6.51329166 -1.73662334 3.22515763 0 0 Z " fill="#562D66" transform="translate(611,171)"/>
<path d="M0 0 C0.66 0 1.32 0 2 0 C2 5.28 2 10.56 2 16 C1.34 16 0.68 16 0 16 C-1.30677037 11.09961113 -1.31718286 6.03761016 -1 1 C-0.67 0.67 -0.34 0.34 0 0 Z " fill="#3B1B4B" transform="translate(778,631)"/>
<path d="M0 0 C2.0625 0.4375 2.0625 0.4375 4 1 C3.51421457 4.12290635 3.0013988 6.99580359 2 10 C1.34 10 0.68 10 0 10 C-0.19412181 8.52168779 -0.38012131 7.04230684 -0.5625 5.5625 C-0.66691406 4.73878906 -0.77132812 3.91507813 -0.87890625 3.06640625 C-0.91886719 2.38449219 -0.95882812 1.70257812 -1 1 C-0.67 0.67 -0.34 0.34 0 0 Z " fill="#594264" transform="translate(679,619)"/>
<path d="M0 0 C0.38218767 1.65614657 0.71395102 3.32457024 1 5 C0 6 0 6 -1.84765625 6.09765625 C-3.8984375 6.06510417 -5.94921875 6.03255208 -8 6 C-8 5.34 -8 4.68 -8 4 C-2.58823529 0 -2.58823529 0 0 0 Z " fill="#482556" transform="translate(768,444)"/>
<path d="M0 0 C1.4216868 4.26506039 -0.34613318 7.20037743 -1.9375 11.1875 C-2.22818359 11.93708984 -2.51886719 12.68667969 -2.81835938 13.45898438 C-3.53725036 15.30924477 -4.26754653 17.15506648 -5 19 C-6.7358053 12.92227505 -4.23648229 7.28978202 -1.3125 1.875 C-0.879375 1.25625 -0.44625 0.6375 0 0 Z " fill="#431C53" transform="translate(765,384)"/>
<path d="M0 0 C0.99 0.66 1.98 1.32 3 2 C3 2.66 3 3.32 3 4 C-0.63 4 -4.26 4 -8 4 C-8.33 3.01 -8.66 2.02 -9 1 C-5.98131566 -0.50934217 -3.32702771 -0.17510672 0 0 Z " fill="#50365B" transform="translate(697,627)"/>
<path d="M0 0 C2.97 0.495 2.97 0.495 6 1 C5.67 2.65 5.34 4.3 5 6 C3.824375 5.9690625 3.824375 5.9690625 2.625 5.9375 C0.01885039 5.81315937 0.01885039 5.81315937 -2 7 C-2 3 -2 3 0 0 Z " fill="#522664" transform="translate(791,399)"/>
<path d="M0 0 C2.31 0 4.62 0 7 0 C5.94660446 3.27723056 4.36236741 4.60460094 1.5 6.3125 C0.345 6.869375 -0.81 7.42625 -2 8 C-2.66 7.67 -3.32 7.34 -4 7 C-3.34 6.5875 -2.68 6.175 -2 5.75 C-1.34 5.1725 -0.68 4.595 0 4 C0 2.68 0 1.36 0 0 Z " fill="#451756" transform="translate(791,351)"/>
<path d="M0 0 C0.66 0.33 1.32 0.66 2 1 C-6.261959 6.55580866 -6.261959 6.55580866 -11 7 C-10.34 6.67 -9.68 6.34 -9 6 C-9.33 5.01 -9.66 4.02 -10 3 C-9.04287109 2.80083984 -9.04287109 2.80083984 -8.06640625 2.59765625 C-7.24011719 2.42105469 -6.41382813 2.24445313 -5.5625 2.0625 C-4.73878906 1.88847656 -3.91507813 1.71445312 -3.06640625 1.53515625 C-1.02338796 1.19247006 -1.02338796 1.19247006 0 0 Z " fill="#431C55" transform="translate(817,437)"/>
<path d="M0 0 C0.33 0 0.66 0 1 0 C1.28571429 7.42857143 1.28571429 7.42857143 -1 11 C-1.99 11 -2.98 11 -4 11 C-4 9.68 -4 8.36 -4 7 C-3.01 7 -2.02 7 -1 7 C-1.020625 6.030625 -1.04125 5.06125 -1.0625 4.0625 C-1 1 -1 1 0 0 Z " fill="#3B184B" transform="translate(546,636)"/>
<path d="M0 0 C3.63 0 7.26 0 11 0 C11.33 0.66 11.66 1.32 12 2 C8.37 2.33 4.74 2.66 1 3 C0.67 2.01 0.34 1.02 0 0 Z " fill="#441358" transform="translate(577,592)"/>
<path d="M0 0 C0.93423645 3.01031744 1.04449911 3.86650268 0 7 C-1.32 7 -2.64 7 -4 7 C-4 5.02 -4 3.04 -4 1 C-2.68 0.67 -1.36 0.34 0 0 Z " fill="#401D51" transform="translate(563,640)"/>
<path d="M0 0 C0.66 0 1.32 0 2 0 C2 1.98 2 3.96 2 6 C2.66 6 3.32 6 4 6 C4 6.66 4 7.32 4 8 C2.35 7.67 0.7 7.34 -1 7 C-1.04254356 5.00045254 -1.04080783 2.99958364 -1 1 C-0.67 0.67 -0.34 0.34 0 0 Z " fill="#41234E" transform="translate(687,629)"/>
<path d="M0 0 C2.15546298 3.23319447 2.68074747 5.16896958 3 9 C2.01 10.485 2.01 10.485 1 12 C-0.80619523 7.53763531 -1.11658501 4.68965706 0 0 Z " fill="#4F2E5C" transform="translate(557,632)"/>
<path d="M0 0 C2.64 0 5.28 0 8 0 C8 0.66 8 1.32 8 2 C3.56923077 4.09230769 3.56923077 4.09230769 0.6875 3.625 C0.130625 3.41875 -0.42625 3.2125 -1 3 C-0.67 2.01 -0.34 1.02 0 0 Z " fill="#401253" transform="translate(617,592)"/>
<path d="M0 0 C2.375 0.3125 2.375 0.3125 5 1 C5.66 1.99 6.32 2.98 7 4 C6.236875 3.938125 5.47375 3.87625 4.6875 3.8125 C1.95474688 3.74101915 1.95474688 3.74101915 0.1875 5.5 C-0.204375 5.995 -0.59625 6.49 -1 7 C-0.67 4.69 -0.34 2.38 0 0 Z " fill="#471E56" transform="translate(567,572)"/>
<path d="M0 0 C2 3 2 3 2 5 C3.65 5.33 5.3 5.66 7 6 C6.01 6.99 5.02 7.98 4 9 C3.34 8.67 2.68 8.34 2 8 C2 7.34 2 6.68 2 6 C1.01 5.67 0.02 5.34 -1 5 C-1.6875 2.9375 -1.6875 2.9375 -2 1 C-1.34 0.67 -0.68 0.34 0 0 Z " fill="#532A64" transform="translate(641,138)"/>
<path d="M0 0 C2 1.8125 2 1.8125 4 4 C4 4.99 4 5.98 4 7 C3.01 7 2.02 7 1 7 C0.67 7.99 0.34 8.98 0 10 C-0.38922918 8.71254964 -0.76098036 7.41980403 -1.125 6.125 C-1.43824219 5.04605469 -1.43824219 5.04605469 -1.7578125 3.9453125 C-1.83773437 3.30335938 -1.91765625 2.66140625 -2 2 C-1.34 1.34 -0.68 0.68 0 0 Z " fill="#543163" transform="translate(541,636)"/>
<path d="M0 0 C-0.33 0.99 -0.66 1.98 -1 3 C-2.134375 3.12375 -3.26875 3.2475 -4.4375 3.375 C-6.2009375 3.684375 -6.2009375 3.684375 -8 4 C-8.33 4.66 -8.66 5.32 -9 6 C-9.33 4.35 -9.66 2.7 -10 1 C-6.61981469 -0.04005702 -3.5219721 -0.08004482 0 0 Z " fill="#654C72" transform="translate(668,627)"/>
<path d="M0 0 C0.33 0.99 0.66 1.98 1 3 C-0.98 3.66 -2.96 4.32 -5 5 C-5.99 3.68 -6.98 2.36 -8 1 C-5.23735711 0.40267181 -2.83967231 0 0 0 Z " fill="#5D2F6E" transform="translate(719,451)"/>
<path d="M0 0 C1.125 3.75 1.125 3.75 0 6 C-2.02045442 5.39816251 -4.02111039 4.72693904 -6 4 C-6.33 3.34 -6.66 2.68 -7 2 C-4.69 2 -2.38 2 0 2 C0 1.34 0 0.68 0 0 Z " fill="#461C53" transform="translate(632,515)"/>
<path d="M0 0 C0 0.66 0 1.32 0 2 C-3.4019487 4.09350689 -6.05272412 4.17942163 -10 4 C-10 3.34 -10 2.68 -10 2 C-3.375 0 -3.375 0 0 0 Z " fill="#3A2046" transform="translate(760,643)"/>
<path d="M0 0 C0.33 0 0.66 0 1 0 C1.25 5.625 1.25 5.625 -1 9 C-1.66 9 -2.32 9 -3 9 C-2.5020163 5.26512223 -2.12508244 3.18762365 0 0 Z " fill="#421F4E" transform="translate(845,638)"/>
<path d="M0 0 C0.66 0.33 1.32 0.66 2 1 C2.40729228 3.32156597 2.74438677 5.6568787 3 8 C2.01 8.495 2.01 8.495 1 9 C-1.09230769 4.56923077 -1.09230769 4.56923077 -0.625 1.6875 C-0.41875 1.130625 -0.2125 0.57375 0 0 Z " fill="#432151" transform="translate(538,629)"/>
<path d="M0 0 C1.8125 1.375 1.8125 1.375 2.5625 3.5 C2.68625 4.428125 2.68625 4.428125 2.8125 5.375 C1.9771875 4.941875 1.9771875 4.941875 1.125 4.5 C-1.27244645 3.3336747 -3.70346939 2.3410119 -6.1875 1.375 C-3.79410847 -0.16360884 -2.80166935 -0.80047696 0 0 Z " fill="#432351" transform="translate(624.1875,628.625)"/>
<path d="M0 0 C6.48292295 -0.3669579 6.48292295 -0.3669579 8.9375 1.375 C10 3 10 3 10 5 C7.13275314 4.42655063 6.1385485 4.1385485 4 2 C2.68252676 1.30251417 1.35085807 0.63040043 0 0 Z " fill="#3D1D4C" transform="translate(663,628)"/>
<path d="M0 0 C0.99 0 1.98 0 3 0 C2.1875 3.4375 2.1875 3.4375 1 7 C0.01 7.33 -0.98 7.66 -2 8 C-1.125 1.125 -1.125 1.125 0 0 Z " fill="#4B3155" transform="translate(568,621)"/>
<path d="M0 0 C1.32 0.33 2.64 0.66 4 1 C3.67 1.99 3.34 2.98 3 4 C2.34 4 1.68 4 1 4 C0.67 4.99 0.34 5.98 0 7 C-0.66 7 -1.32 7 -2 7 C-1.34 4.69 -0.68 2.38 0 0 Z " fill="#4C2B5A" transform="translate(852,621)"/>
<path d="M0 0 C3.96 0 7.92 0 12 0 C11.67 0.66 11.34 1.32 11 2 C8.35139573 2.59355614 5.70802678 2.74209269 3 3 C3 2.34 3 1.68 3 1 C2.01 0.67 1.02 0.34 0 0 Z " fill="#48135E" transform="translate(590,551)"/>
<path d="M0 0 C2.97 0.495 2.97 0.495 6 1 C5.67 1.99 5.34 2.98 5 4 C1.7 3.67 -1.6 3.34 -5 3 C-5 2.67 -5 2.34 -5 2 C-3.35 1.67 -1.7 1.34 0 1 C0 0.67 0 0.34 0 0 Z " fill="#47165B" transform="translate(611,542)"/>
<path d="M0 0 C0.66 0.33 1.32 0.66 2 1 C0.02 3.31 -1.96 5.62 -4 8 C-5.32 7.67 -6.64 7.34 -8 7 C-5.36 4.69 -2.72 2.38 0 0 Z " fill="#52365A" transform="translate(822,368)"/>
<path d="M0 0 C1.32 0 2.64 0 4 0 C3.71872579 1.48117801 3.42466268 2.95993249 3.125 4.4375 C2.96257813 5.26121094 2.80015625 6.08492188 2.6328125 6.93359375 C2.31957031 7.95646484 2.31957031 7.95646484 2 9 C1.01 9.495 1.01 9.495 0 10 C0 6.7 0 3.4 0 0 Z " fill="#3F194F" transform="translate(862,335)"/>
<path d="M0 0 C0.66 0.99 1.32 1.98 2 3 C-0.475 4.485 -0.475 4.485 -3 6 C-3.99 5.34 -4.98 4.68 -6 4 C-4.02 2.68 -2.04 1.36 0 0 Z " fill="#502761" transform="translate(567,191)"/>
<path d="M0 0 C-0.33 0.99 -0.66 1.98 -1 3 C-3.64 3 -6.28 3 -9 3 C-9 2.34 -9 1.68 -9 1 C-2.25 -1.125 -2.25 -1.125 0 0 Z " fill="#4E3459" transform="translate(778,644)"/>
<path d="M0 0 C2.52259061 1.97420135 2.9929808 2.96745642 3.6875 6.1875 C3.790625 7.115625 3.89375 8.04375 4 9 C3.34 9 2.68 9 2 9 C0.14223235 5.86501708 -0.20140476 3.62528568 0 0 Z " fill="#3B1C4B" transform="translate(855,622)"/>
<path d="M0 0 C0.33 0 0.66 0 1 0 C1.33 2.97 1.66 5.94 2 9 C0.68 9 -0.64 9 -2 9 C-2 7.35 -2 5.7 -2 4 C-1.34 4 -0.68 4 0 4 C0 2.68 0 1.36 0 0 Z " fill="#563366" transform="translate(748,253)"/>
<path d="M0 0 C2 3 2 3 1.8125 4.9375 C0.87858188 7.30821524 -0.38827939 9.03790534 -2 11 C-2.66 10.67 -3.32 10.34 -4 10 C-3.525625 9.0925 -3.05125 8.185 -2.5625 7.25 C-1.35371179 4.73572051 -0.52006114 2.70431791 0 0 Z " fill="#E9DCEC" transform="translate(641,573)"/>
<path d="M0 0 C1.32 0.99 2.64 1.98 4 3 C3.01 4.98 2.02 6.96 1 9 C0.67 9 0.34 9 0 9 C-0.87890625 2.84765625 -0.87890625 2.84765625 -1 1 C-0.67 0.67 -0.34 0.34 0 0 Z " fill="#532E60" transform="translate(715,287)"/>
<path d="M0 0 C2 2 2 2 2.1953125 3.9453125 C2.13020833 5.96354167 2.06510417 7.98177083 2 10 C1.34 10 0.68 10 0 10 C-0.19412181 8.52168779 -0.38012131 7.04230684 -0.5625 5.5625 C-0.66691406 4.73878906 -0.77132812 3.91507812 -0.87890625 3.06640625 C-0.91886719 2.38449219 -0.95882812 1.70257813 -1 1 C-0.67 0.67 -0.34 0.34 0 0 Z " fill="#441855" transform="translate(674,265)"/>
<path d="M0 0 C1.32 0.66 2.64 1.32 4 2 C2.25 5.875 2.25 5.875 0 7 C-0.38133299 5.0085944 -0.71325582 3.00720923 -1 1 C-0.67 0.67 -0.34 0.34 0 0 Z " fill="#451855" transform="translate(558,203)"/>
<path d="M0 0 C2.31 0.33 4.62 0.66 7 1 C6.67 1.99 6.34 2.98 6 4 C4.02 3.34 2.04 2.68 0 2 C0 1.34 0 0.68 0 0 Z " fill="#51375E" transform="translate(749,627)"/>
<path d="M0 0 C0.33 0.99 0.66 1.98 1 3 C-0.98 3.33 -2.96 3.66 -5 4 C-5 3.34 -5 2.68 -5 2 C-5.66 1.67 -6.32 1.34 -7 1 C-4.50935112 0.31292445 -2.62113708 0 0 0 Z " fill="#5B3569" transform="translate(788,294)"/>
<path d="M0 0 C2.25 0.25 2.25 0.25 4 1 C3.01 1.33 2.02 1.66 1 2 C0.67 2.99 0.34 3.98 0 5 C-1.32 4.67 -2.64 4.34 -4 4 C-2.25 1.9375 -2.25 1.9375 0 0 Z " fill="#542F63" transform="translate(703,265)"/>
<path d="M0 0 C2.15377564 2.62198774 3.40072174 4.64404172 4 8 C3.01 8 2.02 8 1 8 C-0.35439668 5.29120665 -0.06501451 2.99066732 0 0 Z " fill="#3E1F4E" transform="translate(633,636)"/>
<path d="M0 0 C2.64 0 5.28 0 8 0 C5.06279492 1.52299523 2.0831351 2.80100302 -1 4 C-0.67 2.68 -0.34 1.36 0 0 Z " fill="#3E234D" transform="translate(766,628)"/>
<path d="M0 0 C0.33 0 0.66 0 1 0 C1.33 4.62 1.66 9.24 2 14 C1.01 14.33 0.02 14.66 -1 15 C-0.67 10.05 -0.34 5.1 0 0 Z " fill="#3A0F4B" transform="translate(750,410)"/>
<path d="M0 0 C0.33 0.66 0.66 1.32 1 2 C-0.65 3.65 -2.3 5.3 -4 7 C-4 5.35 -4 3.7 -4 2 C-2.68 1.34 -1.36 0.68 0 0 Z " fill="#442051" transform="translate(816,375)"/>
<path d="M0 0 C3.3 0.66 6.6 1.32 10 2 C10 2.33 10 2.66 10 3 C6.7 3 3.4 3 0 3 C0 2.01 0 1.02 0 0 Z " fill="#381B44" transform="translate(686,643)"/>
<path d="M0 0 C2.31 0 4.62 0 7 0 C6.34 0.66 5.68 1.32 5 2 C3.68 2 2.36 2 1 2 C1 2.66 1 3.32 1 4 C0.34 4 -0.32 4 -1 4 C-0.67 2.68 -0.34 1.36 0 0 Z " fill="#FDF7FD" transform="translate(768,639)"/>
<path d="M0 0 C1.98 0.99 1.98 0.99 4 2 C4 3.65 4 5.3 4 7 C3.34 7 2.68 7 2 7 C1.34 4.69 0.68 2.38 0 0 Z " fill="#482D56" transform="translate(647,631)"/>
<path d="M0 0 C0.99 0.33 1.98 0.66 3 1 C1.68 2.32 0.36 3.64 -1 5 C-1.99 4.67 -2.98 4.34 -4 4 C-2.68 2.68 -1.36 1.36 0 0 Z " fill="#42254F" transform="translate(747,628)"/>
<path d="M0 0 C1.65 1.65 3.3 3.3 5 5 C4.67 5.66 4.34 6.32 4 7 C0.125 5.25 0.125 5.25 -1 3 C-0.67 2.01 -0.34 1.02 0 0 Z " fill="#431756" transform="translate(634,552)"/>
</svg>
